<svg width="30" height="26" viewBox="0 0 30 26" fill="none" xmlns="http://www.w3.org/2000/svg">
<path d="M2.55403 15.2716H0.851344C0.381175 15.2716 0 14.8809 0 14.399V8.2906C0 7.80867 0.381175 7.41797 0.851344 7.41797H2.55403V15.2716Z" fill="#989898"/>
<path d="M8.51341 25.0155H5.95938C5.48921 25.0155 5.10803 24.6248 5.10803 24.1429V18.6162H9.36475V24.1429C9.36475 24.6248 8.98358 25.0155 8.51341 25.0155Z" fill="#989898"/>
<path d="M9.36478 5.81738H5.10806C4.63789 5.81738 4.25671 6.20809 4.25671 6.69001V15.998C4.25671 16.48 4.63789 16.8707 5.10806 16.8707H9.36478V5.81738Z" fill="#989898"/>
<path d="M25.2935 0.159621C24.9633 -0.0774424 24.5289 -0.0445736 24.2382 0.219193C20.5979 3.52121 15.9221 5.4944 11.0674 5.77923V16.9091C15.9221 17.1939 20.5979 19.1671 24.2382 22.4692C24.397 22.6132 24.5986 22.6884 24.8026 22.6884C24.9546 22.6884 25.108 22.6466 25.2461 22.5606C25.5049 22.3994 25.6537 22.1025 25.6537 21.7921V0.893792C25.6537 0.604429 25.5247 0.325653 25.2935 0.159621Z" fill="#989898"/>
<path d="M27.3566 7.85645V14.8328C28.3898 14.0359 29.0593 12.769 29.0593 11.3446C29.0593 9.92027 28.3898 8.65327 27.3566 7.85645Z" fill="#989898"/>
</svg>
