<svg width="39" height="39" viewBox="0 0 39 39" fill="none" xmlns="http://www.w3.org/2000/svg">
<path fill-rule="evenodd" clip-rule="evenodd" d="M38.2861 34.3045C38.0271 34.5627 37.7148 34.8928 37.3837 35.242C36.5574 36.1189 35.5252 37.2091 34.8782 37.6512C31.4743 39.9774 26.9203 38.8644 23.6991 37.5221C19.4497 35.7515 14.8233 32.4878 10.6693 28.3331C6.51144 24.178 3.24823 19.5499 1.4777 15.3028C0.137137 12.0807 -0.978197 7.52554 1.34821 4.12063C1.78999 3.47316 2.88263 2.44247 3.75841 1.61455C4.10879 1.28442 4.43631 0.972494 4.69528 0.714345C5.15505 0.256835 5.77727 0 6.42587 0C7.07447 0 7.69668 0.256835 8.15645 0.714345L14.4196 6.97603C14.8769 7.4358 15.1335 8.05788 15.1335 8.70633C15.1335 9.35477 14.8769 9.97685 14.4196 10.4366L12.7135 12.1395C12.1437 12.7051 11.7717 13.4397 11.653 14.2338C11.5343 15.0279 11.6752 15.8391 12.0547 16.5466C14.4014 20.9761 18.0243 24.5986 22.4539 26.9447C23.1613 27.3241 23.9723 27.4648 24.7662 27.3459C25.56 27.227 26.2942 26.8548 26.8594 26.2849L28.5614 24.5819C29.0211 24.1244 29.6433 23.8676 30.2919 23.8676C30.9405 23.8676 31.5627 24.1244 32.0225 24.5819L38.2861 30.8447C38.7433 31.3043 39 31.9263 39 32.5746C39 33.2229 38.7433 33.8449 38.2861 34.3045Z" fill="white"/>
</svg>
