<svg width="33" height="33" viewBox="0 0 33 33" fill="none" xmlns="http://www.w3.org/2000/svg">
<path d="M16.3818 0C25.4289 0.000216464 32.7627 7.33475 32.7627 16.3818C32.7625 25.4288 25.4288 32.7625 16.3818 32.7627C7.33471 32.7627 0.000148444 25.4289 0 16.3818C0 7.33462 7.33462 0 16.3818 0ZM17.2227 6.18164C14.8085 5.98211 12.4023 6.65214 10.4385 8.07031C8.4747 9.48845 7.08256 11.5617 6.5127 13.916C5.94286 16.2704 6.23306 18.7509 7.33105 20.9102L6.25293 26.1426C6.24177 26.1945 6.24146 26.2487 6.25195 26.3008C6.26251 26.3529 6.28393 26.4027 6.31445 26.4463C6.35922 26.5125 6.42354 26.5638 6.49805 26.5928C6.57243 26.6216 6.65387 26.627 6.73145 26.6084L11.8604 25.3926C14.0134 26.4627 16.4761 26.7345 18.8105 26.1592C21.1451 25.5839 23.2 24.1991 24.6094 22.251C26.0187 20.3029 26.6909 17.9179 26.5068 15.5205C26.3228 13.1231 25.2947 10.8684 23.6045 9.1582C21.9002 7.43692 19.6367 6.38122 17.2227 6.18164ZM16.3818 8.34668C18.4909 8.34676 20.5133 9.18472 22.0049 10.6758C22.0176 10.6903 22.0313 10.7041 22.0459 10.7168C23.519 12.2118 24.3416 14.2283 24.334 16.3271C24.3263 18.426 23.4889 20.4367 22.0049 21.9209C20.8257 23.0967 19.3077 23.8734 17.6641 24.1406C16.0203 24.4078 14.3337 24.1521 12.8428 23.4102L12.1279 23.0566L8.9834 23.8008L8.99316 23.7617L9.64453 20.5977L9.29492 19.9072C8.53311 18.4111 8.26452 16.712 8.52734 15.0537C8.79017 13.3955 9.57074 11.863 10.7578 10.6758C12.2495 9.18459 14.2726 8.34668 16.3818 8.34668ZM13.2021 11.4219C13.0909 11.3964 12.9751 11.3976 12.8643 11.4248C12.7535 11.452 12.6502 11.5041 12.5635 11.5781C12.0144 12.0398 11.3624 12.7475 11.2842 13.5293C11.1427 14.9068 11.7279 16.6437 13.9785 18.7305L14.0098 18.7588C16.5693 21.1452 18.6265 21.4577 19.9668 21.1338C20.7318 20.9495 21.3403 20.2064 21.7256 19.5996C21.7847 19.5029 21.8214 19.3941 21.832 19.2812C21.8426 19.1682 21.8273 19.0534 21.7871 18.9473C21.7469 18.8412 21.6824 18.7455 21.5996 18.668C21.5168 18.5904 21.417 18.5333 21.3086 18.5L19.3408 17.9414C19.2143 17.9056 19.0805 17.9039 18.9531 17.9365C18.8257 17.9692 18.7089 18.0346 18.6152 18.127L18.1289 18.6172C18.0302 18.7191 17.9035 18.7892 17.7646 18.8184C17.6258 18.8475 17.481 18.8349 17.3496 18.7812C16.8582 18.584 16.0817 18.0049 15.3818 17.3721C14.7582 16.8118 14.1955 16.2063 13.9609 15.7949C13.8904 15.6697 13.8595 15.526 13.8711 15.3828C13.8827 15.2397 13.9367 15.1034 14.0264 14.9912L14.4453 14.4473C14.5266 14.3432 14.5786 14.219 14.5947 14.0879C14.6108 13.9567 14.59 13.8229 14.5361 13.7021L13.708 11.8408C13.6621 11.7364 13.5927 11.644 13.5049 11.5713C13.417 11.4986 13.3133 11.4474 13.2021 11.4219Z" fill="#DADADA"/>
</svg>
