<svg width="24" height="23" viewBox="0 0 24 23" fill="none" xmlns="http://www.w3.org/2000/svg">
<path d="M20.1429 0H3.85714C2.83451 0.00114781 1.85409 0.412708 1.13098 1.14438C0.407875 1.87606 0.00113437 2.8681 0 3.90284V14.3104C0.00113437 15.3452 0.407875 16.3372 1.13098 17.0689C1.85409 17.8006 2.83451 18.2121 3.85714 18.2133H5.14286V21.6825C5.14281 21.8474 5.18923 22.0089 5.27668 22.148C5.36412 22.2872 5.48896 22.3982 5.63656 22.4682C5.78415 22.5381 5.9484 22.564 6.11002 22.5428C6.27165 22.5217 6.42397 22.4543 6.54911 22.3487L11.4504 18.2133H20.1429C21.1655 18.2121 22.1459 17.8006 22.869 17.0689C23.5921 16.3372 23.9989 15.3452 24 14.3104V3.90284C23.9989 2.8681 23.5921 1.87606 22.869 1.14438C22.1459 0.412708 21.1655 0.00114781 20.1429 0ZM6.85714 10.8412C6.51809 10.8412 6.18665 10.7395 5.90474 10.5489C5.62282 10.3583 5.4031 10.0874 5.27335 9.77044C5.1436 9.45348 5.10965 9.10471 5.1758 8.76823C5.24194 8.43175 5.40521 8.12268 5.64496 7.88009C5.88471 7.6375 6.19016 7.4723 6.5227 7.40537C6.85524 7.33844 7.19993 7.37279 7.51317 7.50408C7.82642 7.63536 8.09415 7.85769 8.28252 8.14295C8.47089 8.4282 8.57143 8.76356 8.57143 9.10664C8.57143 9.56668 8.39082 10.0079 8.06933 10.3332C7.74783 10.6585 7.3118 10.8412 6.85714 10.8412ZM12 10.8412C11.6609 10.8412 11.3295 10.7395 11.0476 10.5489C10.7657 10.3583 10.546 10.0874 10.4162 9.77044C10.2865 9.45348 10.2525 9.10471 10.3187 8.76823C10.3848 8.43175 10.5481 8.12268 10.7878 7.88009C11.0276 7.6375 11.333 7.4723 11.6656 7.40537C11.9981 7.33844 12.3428 7.37279 12.656 7.50408C12.9693 7.63536 13.237 7.85769 13.4254 8.14295C13.6137 8.4282 13.7143 8.76356 13.7143 9.10664C13.7143 9.56668 13.5337 10.0079 13.2122 10.3332C12.8907 10.6585 12.4547 10.8412 12 10.8412ZM17.1429 10.8412C16.8038 10.8412 16.4724 10.7395 16.1905 10.5489C15.9085 10.3583 15.6888 10.0874 15.5591 9.77044C15.4293 9.45348 15.3954 9.10471 15.4615 8.76823C15.5277 8.43175 15.6909 8.12268 15.9307 7.88009C16.1704 7.6375 16.4759 7.4723 16.8084 7.40537C17.141 7.33844 17.4856 7.37279 17.7989 7.50408C18.1121 7.63536 18.3799 7.85769 18.5682 8.14295C18.7566 8.4282 18.8571 8.76356 18.8571 9.10664C18.8571 9.56668 18.6765 10.0079 18.355 10.3332C18.0335 10.6585 17.5975 10.8412 17.1429 10.8412Z" fill="#989898"/>
</svg>
