<svg width="63" height="64" viewBox="0 0 63 64" fill="none" xmlns="http://www.w3.org/2000/svg">
<path d="M31.5 64C48.9011 64 63 49.6773 63 32C63 14.3227 48.9011 0 31.5 0C14.0989 0 0 14.3227 0 32C0 49.6773 14.0989 64 31.5 64ZM14.4139 31.3067L44.7851 19.4107C46.1948 18.8933 47.4259 19.76 46.9691 21.9253L46.9717 21.9227L41.8005 46.672C41.4172 48.4267 40.3909 48.8533 38.955 48.0267L31.08 42.1307L27.2816 45.848C26.8616 46.2747 26.5072 46.6347 25.6935 46.6347L26.2526 38.4933L40.8476 25.0987C41.4829 24.5307 40.7059 24.2107 39.8685 24.776L21.8321 36.312L14.0569 33.848C12.369 33.304 12.3323 32.1333 14.4139 31.3067Z" fill="url(#paint0_linear_86_45)"/>
<defs>
<linearGradient id="paint0_linear_86_45" x1="31.5" y1="0" x2="31.5" y2="64" gradientUnits="userSpaceOnUse">
<stop stop-color="#E8E8E8"/>
<stop offset="1" stop-color="#F47420"/>
</linearGradient>
</defs>
</svg>
