<svg width="30" height="29" viewBox="0 0 30 29" fill="none" xmlns="http://www.w3.org/2000/svg">
<path d="M29.7528 13.7371L26.6746 10.5459L27.2944 6.14956C27.361 5.67877 27.0431 5.24013 26.5762 5.15795L22.2153 4.39061L20.14 0.46851C19.918 0.0484569 19.4037 -0.119105 18.9777 0.0897736L15 2.03969L11.0223 0.0897736C10.5963 -0.118876 10.082 0.0486865 9.85977 0.46851L7.78473 4.39061L3.42384 5.15795C2.95692 5.24013 2.63901 5.67877 2.70538 6.14956L3.32542 10.5459L0.247192 13.7371C-0.0823975 14.0789 -0.0823975 14.6211 0.247192 14.9629L3.32542 18.1541L2.70538 22.5504C2.63901 23.021 2.95692 23.4599 3.42384 23.542L7.78473 24.3092L9.85977 28.2315C10.082 28.6515 10.5961 28.8191 11.0223 28.6102L15 26.6603L18.9777 28.6102C19.102 28.6711 19.2334 28.7 19.3632 28.7C19.6786 28.7 19.9828 28.529 20.1402 28.2315L22.2153 24.3092L26.5762 23.5418C27.0431 23.4596 27.361 23.021 27.2946 22.5502L26.6746 18.1539L29.7528 14.9629C30.0824 14.6211 30.0824 14.0789 29.7528 13.7371ZM18.9498 12.6464C18.6067 12.9907 18.0501 12.9907 17.7068 12.6464L15.8789 10.8133V20.0145C15.8789 20.5014 15.4855 20.8959 15 20.8959C14.5145 20.8959 14.1211 20.5014 14.1211 20.0145V10.8133L12.293 12.6464C12.1214 12.8185 11.8966 12.9046 11.6716 12.9046C11.4466 12.9046 11.2216 12.8185 11.0502 12.6464C10.7069 12.3023 10.7069 11.7443 11.0502 11.4L14.3786 8.06206C14.7219 7.71775 15.2783 7.71775 15.6216 8.06206L18.95 11.4C19.2931 11.7441 19.2931 12.3023 18.9498 12.6464Z" fill="#989898"/>
</svg>
