<svg width="64" height="64" viewBox="0 0 64 64" fill="none" xmlns="http://www.w3.org/2000/svg">
<path d="M31.6969 0C25.4279 0 19.2996 1.85899 14.0871 5.34189C8.87453 8.82479 4.81186 13.7752 2.4128 19.567C0.0137339 25.3589 -0.613971 31.7321 0.609061 37.8807C1.83209 44.0293 4.85093 49.6771 9.28382 54.11C13.7167 58.5429 19.3646 61.5617 25.5132 62.7848C31.6618 64.0078 38.0349 63.3801 43.8268 60.981C49.6186 58.582 54.569 54.5193 58.0519 49.3068C61.5348 44.0942 63.3938 37.966 63.3938 31.6969C63.3938 23.2904 60.0543 15.2281 54.11 9.28381C48.1657 3.33949 40.1035 0 31.6969 0ZM49.9659 44.1019C49.0438 44.2316 44.5342 44.1019 44.3 44.1019C43.1342 44.1172 42.0094 43.672 41.17 42.8629C40.2191 41.9444 39.369 40.9358 38.4397 39.9813C38.1659 39.6883 37.8683 39.4185 37.55 39.1745C36.808 38.6054 36.0732 38.7315 35.7239 39.6103C35.4511 40.5562 35.2607 41.5239 35.1548 42.5027C35.0935 43.3887 34.5316 43.9434 33.5375 44.0047C32.9216 44.0371 32.3056 44.0515 31.6969 44.0335C29.4782 44.0214 27.2942 43.4818 25.3251 42.4594C23.1939 41.2731 21.3369 39.6505 19.8754 37.6977C17.4729 34.6289 15.5531 31.2575 13.8386 27.7816C13.7485 27.6051 11.9908 23.8663 11.9476 23.6898C11.7891 23.1027 11.9476 22.5372 12.4338 22.3391C12.7436 22.2203 18.5355 22.3391 18.6327 22.3391C19.0637 22.3362 19.4843 22.4704 19.834 22.7222C20.1836 22.9741 20.4441 23.3306 20.5778 23.7403C21.6494 26.4813 23.1152 29.0513 24.9289 31.3691C25.183 31.6779 25.4802 31.9484 25.8114 32.1724C26.2832 32.4965 26.7299 32.3849 26.9244 31.8374C27.1551 31.0828 27.2907 30.3023 27.3278 29.5141C27.3602 27.9509 27.3278 26.9244 27.2413 25.3611C27.1837 24.3598 26.8307 23.4845 25.3539 23.2C24.9001 23.1171 24.8605 22.7425 25.1522 22.3679C25.761 21.5935 26.593 21.4675 27.5259 21.4206C28.9162 21.3414 30.3066 21.3954 31.6969 21.4206H31.9995C32.6046 21.4184 33.2082 21.48 33.8004 21.6043C34.1508 21.6758 34.4687 21.8586 34.7069 22.1253C34.9451 22.392 35.0908 22.7285 35.1223 23.0847C35.1939 23.4791 35.224 23.8799 35.2124 24.2806C35.1764 25.9843 35.0935 27.6916 35.0755 29.3953C35.0588 30.0713 35.1204 30.7469 35.2592 31.4088C35.4573 32.3164 36.0805 32.5434 36.7 31.8878C37.5029 31.0422 38.2387 30.1354 38.9008 29.1756C40.0742 27.426 41.0411 25.5465 41.7823 23.5746C42.1857 22.5624 42.5027 22.3391 43.5833 22.3391H49.7281C50.0935 22.3327 50.4578 22.3813 50.8087 22.4832C50.9329 22.5158 51.0491 22.5738 51.1498 22.6534C51.2506 22.733 51.3339 22.8325 51.3944 22.9458C51.4549 23.0591 51.4914 23.1836 51.5016 23.3117C51.5117 23.4397 51.4954 23.5684 51.4535 23.6898C51.1509 25.037 50.4233 26.186 49.6525 27.2918C48.4026 29.0603 47.0843 30.7856 45.8056 32.5326C45.6518 32.7584 45.5111 32.9929 45.3842 33.2349C44.9016 34.1066 44.9376 34.5928 45.6363 35.3132C46.7529 36.4622 47.9452 37.5356 49.0222 38.717C49.8121 39.5766 50.5256 40.5034 51.1545 41.4869C51.9217 42.726 51.4354 43.893 49.9659 44.1019Z" fill="url(#paint0_linear_86_54)"/>
<defs>
<linearGradient id="paint0_linear_86_54" x1="31.6969" y1="0" x2="31.6969" y2="63.3938" gradientUnits="userSpaceOnUse">
<stop stop-color="#E8E8E8"/>
<stop offset="1" stop-color="#F47420"/>
</linearGradient>
</defs>
</svg>
