<svg width="33" height="33" viewBox="0 0 33 33" fill="none" xmlns="http://www.w3.org/2000/svg">
<path d="M16.3814 0C13.1415 0 9.97432 0.960755 7.28041 2.76077C4.58649 4.56079 2.48684 7.11922 1.24697 10.1125C0.00709788 13.1058 -0.317309 16.3996 0.314772 19.5773C0.946853 22.755 2.50703 25.6739 4.79802 27.9649C7.089 30.2559 10.0079 31.816 13.1856 32.4481C16.3633 33.0802 19.657 32.7558 22.6503 31.5159C25.6437 30.276 28.2021 28.1764 30.0021 25.4825C31.8021 22.7886 32.7629 19.6214 32.7629 16.3814C32.7629 12.0368 31.037 7.87013 27.9649 4.79801C24.8928 1.7259 20.7261 0 16.3814 0ZM25.8231 22.7925C25.3466 22.8596 23.0159 22.7925 22.8949 22.7925C22.2924 22.8004 21.7111 22.5703 21.2773 22.1522C20.7858 21.6775 20.3465 21.1563 19.8662 20.663C19.7247 20.5115 19.5709 20.3721 19.4064 20.246C19.023 19.9518 18.6432 20.017 18.4626 20.4712C18.3217 20.9601 18.2232 21.4602 18.1685 21.966C18.1369 22.424 17.8465 22.7106 17.3327 22.7423C17.0144 22.759 16.696 22.7665 16.3814 22.7572C15.2348 22.7509 14.1061 22.4721 13.0884 21.9437C11.987 21.3306 11.0272 20.492 10.2719 19.4827C9.03027 17.8967 8.03808 16.1543 7.15199 14.358C7.10546 14.2667 6.19703 12.3345 6.17469 12.2433C6.09278 11.9398 6.17469 11.6476 6.426 11.5452C6.58609 11.4838 9.57942 11.5452 9.62969 11.5452C9.85238 11.5437 10.0698 11.613 10.2505 11.7432C10.4312 11.8734 10.5658 12.0576 10.6349 12.2693C11.1887 13.6859 11.9463 15.0142 12.8836 16.212C13.0149 16.3716 13.1685 16.5114 13.3397 16.6272C13.5836 16.7947 13.8144 16.737 13.9149 16.454C14.0342 16.0641 14.1042 15.6607 14.1234 15.2534C14.1402 14.4455 14.1234 13.9149 14.0787 13.107C14.049 12.5895 13.8665 12.1372 13.1033 11.9901C12.8687 11.9473 12.8483 11.7537 12.9991 11.5601C13.3136 11.1599 13.7437 11.0947 14.2258 11.0705C14.9443 11.0295 15.6629 11.0575 16.3814 11.0705H16.5378C16.8505 11.0694 17.1625 11.1012 17.4686 11.1654C17.6497 11.2024 17.814 11.2968 17.937 11.4347C18.0601 11.5725 18.1354 11.7464 18.1518 11.9305C18.1887 12.1344 18.2043 12.3415 18.1983 12.5486C18.1797 13.4291 18.1369 14.3114 18.1276 15.1919C18.1189 15.5413 18.1508 15.8905 18.2225 16.2325C18.3249 16.7016 18.6469 16.8189 18.9671 16.4801C19.3821 16.0431 19.7623 15.5744 20.1045 15.0784C20.7109 14.1742 21.2107 13.2028 21.5937 12.1837C21.8022 11.6606 21.966 11.5452 22.5245 11.5452H25.7002C25.8891 11.5419 26.0773 11.567 26.2587 11.6197C26.3229 11.6365 26.3829 11.6665 26.435 11.7076C26.4871 11.7487 26.5301 11.8002 26.5614 11.8587C26.5927 11.9173 26.6115 11.9817 26.6168 12.0478C26.622 12.114 26.6136 12.1805 26.5919 12.2433C26.4356 12.9395 26.0595 13.5333 25.6612 14.1048C25.0152 15.0188 24.3339 15.9105 23.673 16.8133C23.5935 16.93 23.5208 17.0512 23.4552 17.1763C23.2058 17.6268 23.2244 17.8781 23.5856 18.2504C24.1626 18.8442 24.7788 19.399 25.3354 20.0096C25.7436 20.4538 26.1124 20.9328 26.4374 21.4411C26.8339 22.0814 26.5826 22.6846 25.8231 22.7925Z" fill="#DADADA"/>
</svg>
