<svg width="66" height="66" viewBox="0 0 66 66" fill="none" xmlns="http://www.w3.org/2000/svg">
<path d="M33 0C51.2254 0 65.9998 14.7746 66 33C66 51.2255 51.2255 66 33 66C14.7746 65.9999 0 51.2254 0 33C0.000162867 14.7747 14.7747 9.48395e-05 33 0ZM34.6943 12.4541C29.8311 12.0522 24.9844 13.401 21.0283 16.2578C17.0722 19.1147 14.2671 23.2913 13.1191 28.0342C11.9712 32.7771 12.5557 37.7743 14.7676 42.124L12.5967 52.665C12.5742 52.7699 12.5735 52.8783 12.5947 52.9834C12.616 53.0886 12.6591 53.1885 12.7207 53.2764C12.8108 53.4095 12.9391 53.512 13.0889 53.5703C13.239 53.6286 13.404 53.6401 13.5605 53.6025L23.8916 51.1533C28.229 53.3092 33.1906 53.8571 37.8936 52.6982C42.5966 51.5392 46.7361 48.7487 49.5752 44.8242C52.4143 40.8997 53.7692 36.0952 53.3984 31.2656C53.0276 26.4363 50.9554 21.8952 47.5508 18.4502C44.1174 14.9826 39.5576 12.8561 34.6943 12.4541ZM33 16.8145C37.2488 16.8145 41.3242 18.502 44.3291 21.5059C44.3547 21.5352 44.3828 21.5633 44.4121 21.5889C47.3796 24.6006 49.036 28.6636 49.0205 32.8916C49.005 37.1196 47.3186 41.1703 44.3291 44.1602C41.9536 46.5289 38.8943 48.0927 35.583 48.6309C32.2719 49.169 28.8754 48.6545 25.8721 47.1602L24.4316 46.4473L18.0977 47.9473L18.1162 47.8691L19.4287 41.4941L18.7236 40.1025C17.189 37.0886 16.6483 33.6657 17.1777 30.3252C17.7073 26.9848 19.2805 23.8975 21.6719 21.5059C24.6767 18.5021 28.7513 16.8146 33 16.8145ZM26.5947 23.0088C26.3706 22.9574 26.1373 22.9589 25.9141 23.0137C25.6908 23.0685 25.4834 23.175 25.3086 23.3242C24.2024 24.2542 22.8901 25.6791 22.7324 27.2539C22.4474 30.0289 23.6254 33.5277 28.1592 37.7314L28.2227 37.7881C33.3789 42.5956 37.5227 43.2257 40.2227 42.5732C41.7639 42.202 42.9903 40.7059 43.7666 39.4834C43.8858 39.2884 43.9592 39.0684 43.9805 38.8408C44.0017 38.6131 43.9697 38.3828 43.8887 38.1689C43.8076 37.9553 43.6794 37.7627 43.5127 37.6064C43.3459 37.4501 43.1453 37.3337 42.9268 37.2666L38.9629 36.1416C38.7077 36.0692 38.4376 36.066 38.1807 36.1318C37.9238 36.1977 37.6888 36.3304 37.5 36.5166L36.5215 37.5029C36.3225 37.7086 36.0662 37.8504 35.7861 37.9092C35.5062 37.9679 35.215 37.9412 34.9502 37.833C33.9602 37.4355 32.3963 36.2691 30.9863 34.9941C29.7302 33.8655 28.5976 32.6471 28.125 31.8184C27.9828 31.5662 27.9191 31.2769 27.9424 30.9883C27.9658 30.6997 28.075 30.4243 28.2559 30.1982L29.0996 29.1035C29.2635 28.8938 29.368 28.643 29.4004 28.3789C29.4327 28.1148 29.3924 27.8465 29.2842 27.6035L27.6152 23.8525C27.5228 23.6421 27.3821 23.4561 27.2051 23.3096C27.028 23.163 26.8188 23.0602 26.5947 23.0088Z" fill="url(#paint0_linear_86_77)"/>
<defs>
<linearGradient id="paint0_linear_86_77" x1="33" y1="0" x2="33" y2="66" gradientUnits="userSpaceOnUse">
<stop stop-color="#E8E8E8"/>
<stop offset="1" stop-color="#F47420"/>
</linearGradient>
</defs>
</svg>
