<svg width="71" height="60" viewBox="0 0 71 60" fill="none" xmlns="http://www.w3.org/2000/svg">
<path d="M71 30.0559C71 36.0149 70.2142 41.1732 68.6426 45.5307C67.0401 49.8883 64.8214 53.3147 61.9863 55.8101C59.1204 58.2682 55.8077 59.6648 52.0482 60L52.0482 49.6089C54.6367 49.311 56.7784 48.2495 58.4733 46.4246C60.1682 44.5624 61.4316 42.1974 62.2637 39.3296C63.0957 36.4618 63.5117 33.3706 63.5117 30.0559C63.5117 26.2197 62.9878 22.7747 61.9401 19.7207C60.8924 16.6294 59.4286 14.1899 57.5488 12.4022C55.669 10.6145 53.4657 9.72067 50.9388 9.72067C48.6584 9.72067 46.8095 10.5028 45.3919 12.067C43.9744 13.6313 42.8188 15.6797 41.9251 18.2123C41.0315 20.7076 40.2457 23.4264 39.5677 26.3687L37.1641 36.5363C35.6233 43.054 33.4199 48.2123 30.554 52.0112C27.6573 55.7728 23.8824 57.6536 19.2292 57.6536C15.3772 57.6536 12.0182 56.406 9.15234 53.9106C6.25564 51.378 4.00608 47.9702 2.40365 43.6872C0.801214 39.3669 -1.11191e-06 34.5624 -1.34309e-06 29.2737C-1.57752e-06 23.9106 0.801213 19.1434 2.40364 14.9721C3.97526 10.8007 6.13238 7.48603 8.875 5.02793C11.5868 2.56984 14.6684 1.2663 18.1198 1.11732L18.1198 10.9497C14.73 11.4339 12.0953 13.4078 10.2155 16.8715C8.33572 20.298 7.39583 24.5438 7.39583 29.6089C7.39583 33.2588 7.88889 36.4618 8.875 39.2179C9.86111 41.9739 11.217 44.1155 12.9427 45.6425C14.6684 47.1695 16.6406 47.933 18.8594 47.933C21.2938 47.933 23.2661 47.0205 24.776 45.1955C26.2552 43.3706 27.4108 41.2104 28.2428 38.7151C29.0749 36.1825 29.7374 33.892 30.2305 31.8436L32.1719 23.4637C32.6649 21.3035 33.3275 18.9013 34.1595 16.257C34.9915 13.5754 36.1163 11.0056 37.5338 8.54749C38.9514 6.05214 40.7695 4.00373 42.9883 2.40224C45.1762 0.800745 47.888 1.72145e-06 51.1237 1.58001e-06C54.8216 1.41837e-06 58.1806 1.17318 61.2005 3.51955C64.1897 5.86592 66.5779 9.27374 68.3652 13.743C70.1217 18.2123 71 23.6499 71 30.0559Z" fill="url(#paint0_linear_31_79)"/>
<defs>
<linearGradient id="paint0_linear_31_79" x1="8.5" y1="30" x2="71" y2="30" gradientUnits="userSpaceOnUse">
<stop stop-color="white"/>
<stop offset="1" stop-color="#ACACAC"/>
</linearGradient>
</defs>
</svg>
