<svg width="739" height="94" viewBox="0 0 739 94" fill="none" xmlns="http://www.w3.org/2000/svg">
<path d="M40.2812 0C48.0641 6.4778e-05 54.9712 1.89502 61.002 5.68457C67.0329 9.47427 71.7804 14.8739 75.2441 21.8828C78.7078 28.8916 80.4394 37.2046 80.4395 46.8213C80.4395 56.3974 78.7078 64.6903 75.2441 71.6992C71.7804 78.6674 67.0329 84.0462 61.002 87.8359C54.9711 91.6256 48.0642 93.5204 40.2812 93.5205C32.5388 93.5205 25.6312 91.6256 19.5596 87.8359C13.488 84.0462 8.69974 78.6673 5.19531 71.6992C1.73163 64.6903 0 56.3974 0 46.8213C3.90104e-05 37.2046 1.73165 28.8916 5.19531 21.8828C8.69977 14.8739 13.4879 9.47427 19.5596 5.68457C25.6312 1.8949 32.5389 0 40.2812 0ZM622.326 0C626.89 2.59165e-05 631.189 0.672962 635.223 2.01758C639.298 3.36231 642.966 5.31853 646.226 7.88574C649.485 10.4122 652.196 13.5292 654.355 17.2373C656.556 20.9047 658.063 25.0616 658.878 29.707H647.876C647.224 26.5287 646.083 23.7372 644.453 21.333C642.864 18.9288 640.908 16.9112 638.585 15.2812C636.303 13.6106 633.777 12.3677 631.006 11.5527C628.235 10.697 625.342 10.2696 622.326 10.2695C616.825 10.2695 611.833 11.6756 607.351 14.4873C602.868 17.2583 599.302 21.3736 596.653 26.834C594.045 32.2536 592.742 38.9161 592.742 46.8213C592.742 54.6858 594.045 61.3284 596.653 66.748C599.302 72.1677 602.868 76.283 607.351 79.0947C611.833 81.8657 616.825 83.252 622.326 83.252C625.342 83.2519 628.235 82.8443 631.006 82.0293C633.777 81.1736 636.303 79.9307 638.585 78.3008C640.908 76.6301 642.864 74.5926 644.453 72.1885C646.083 69.7843 647.224 66.9928 647.876 63.8145H658.878C658.063 68.5005 656.556 72.6774 654.355 76.3447C652.196 80.0121 649.485 83.1291 646.226 85.6963C642.966 88.2228 639.298 90.1582 635.223 91.5029C631.189 92.8476 626.89 93.5205 622.326 93.5205C614.584 93.5205 607.676 91.6256 601.604 87.8359C595.533 84.0463 590.765 78.6673 587.302 71.6992C583.838 64.6903 582.106 56.3974 582.106 46.8213C582.107 37.2045 583.838 28.8916 587.302 21.8828C590.765 14.874 595.533 9.47425 601.604 5.68457C607.676 1.89487 614.584 0 622.326 0ZM166.062 72.8604H166.918V1.22266H177.92V92.2979H167.04L117.529 20.7822H116.552V92.2979H105.549V1.22266H116.185L166.062 72.8604ZM261.587 11.0029H217.578V41.4424H258.653V51.2227H217.578V82.5186H262.198V92.2979H206.575V1.22266H261.587V11.0029ZM361.224 0.498047C366.929 0.498047 372.111 2.29285 376.77 5.88281C381.381 9.47277 385.066 14.6864 387.823 21.5244C390.533 28.3624 391.888 36.6822 391.888 46.4834C391.888 55.6007 390.676 63.4931 388.251 70.1602C385.779 76.8272 382.355 82.0698 377.981 85.8877C373.56 89.6483 368.45 91.7849 362.65 92.2979V76.3994C366.644 75.9435 369.948 74.3194 372.562 71.5273C375.177 68.6782 377.127 65.0595 378.41 60.6719C379.694 56.2843 380.335 51.5547 380.335 46.4834C380.335 40.6141 379.527 35.3426 377.91 30.6699C376.294 25.9405 374.036 22.2078 371.136 19.4727C368.236 16.7377 364.837 15.3701 360.938 15.3701C357.42 15.3701 354.568 16.5667 352.381 18.96C350.194 21.3533 348.411 24.4875 347.032 28.3623C345.654 32.1802 344.441 36.3401 343.396 40.8418L339.688 56.3984C337.31 66.3705 333.912 74.2629 329.49 80.0752C325.021 85.8305 319.197 88.708 312.019 88.708C306.076 88.708 300.894 86.7993 296.473 82.9814C292.004 79.1066 288.534 73.892 286.062 67.3389C283.59 60.729 282.354 53.3785 282.354 45.2871C282.354 37.0816 283.589 29.7874 286.062 23.4053C288.486 17.0231 291.814 11.9513 296.045 8.19043C300.229 4.42952 304.983 2.43497 310.308 2.20703V17.251C305.078 17.9918 301.013 21.0121 298.113 26.3115C295.213 31.554 293.763 38.0501 293.763 45.7998C293.763 51.384 294.524 56.2843 296.045 60.501C297.566 64.7178 299.658 67.9947 302.32 70.3311C304.983 72.6673 308.025 73.835 311.448 73.835C315.204 73.835 318.247 72.4395 320.576 69.6475C322.858 66.8553 324.641 63.5502 325.925 59.7324C327.208 55.8576 328.231 52.3528 328.991 49.2188L331.986 36.3975C332.747 33.0924 333.769 29.4169 335.053 25.3711C336.336 21.2683 338.071 17.3361 340.258 13.5752C342.445 9.7573 345.25 6.62314 348.673 4.17285C352.048 1.72262 356.232 0.498057 361.224 0.498047ZM452.67 1.22266C459.801 1.2227 465.628 2.50705 470.151 5.07422C474.715 7.64141 478.097 11.1048 480.298 15.4648C482.498 19.8249 483.599 24.6945 483.599 30.0732C483.599 35.4114 482.498 40.2817 480.298 44.6826C478.138 49.0835 474.776 52.5874 470.212 55.1953C465.689 57.7625 459.882 59.0469 452.792 59.0469H432.865V92.2979H421.863V1.22266H452.67ZM569.099 92.2979H557.607L548.434 66.5039H511.606L502.474 92.2979H490.86L524.356 1.22266H535.726L569.099 92.2979ZM738.389 11.0029H694.379V41.4424H735.455V51.2227H694.379V82.5186H739V92.2979H683.377V1.22266H738.389V11.0029ZM40.2812 10.2695C34.7801 10.2695 29.7881 11.6756 25.3057 14.4873C20.8232 17.2583 17.2571 21.3736 14.6084 26.834C11.9598 32.2536 10.6358 38.9161 10.6357 46.8213C10.6357 54.6859 11.9597 61.3284 14.6084 66.748C17.2571 72.1677 20.8232 76.283 25.3057 79.0947C29.7881 81.8657 34.7801 83.252 40.2812 83.252C45.7823 83.2519 50.7537 81.8656 55.1953 79.0947C59.6776 76.283 63.2232 72.1676 65.8311 66.748C68.4797 61.3284 69.8037 54.6859 69.8037 46.8213C69.8037 38.9161 68.4797 32.2536 65.8311 26.834C63.2231 21.3737 59.6776 17.2583 55.1953 14.4873C50.7537 11.6757 45.7823 10.2696 40.2812 10.2695ZM515.069 56.7236H544.955L530.347 15.6484H529.612L515.069 56.7236ZM432.865 49.2666H452.425C457.315 49.2666 461.247 48.4313 464.222 46.7607C467.196 45.0901 469.356 42.8081 470.701 39.915C472.046 36.9811 472.719 33.6999 472.719 30.0732C472.719 26.406 472.046 23.1463 470.701 20.2939C469.356 17.4008 467.177 15.1388 464.161 13.5088C461.186 11.8381 457.233 11.0029 452.303 11.0029H432.865V49.2666Z" fill="url(#paint0_linear_31_85)"/>
<path d="M622.872 8.84314L625.267 44.0915L660.516 46.4872L625.267 48.8828L622.872 84.1312L620.476 48.8828L585.228 46.4872L620.476 44.0915L622.872 8.84314Z" fill="#BDBDBD"/>
<path d="M634.583 34.5408L624.26 46.3696L634.583 58.1984L622.754 47.8752L610.925 58.1984L621.249 46.3696L610.925 34.5408L622.754 44.864L634.583 34.5408Z" fill="#BDBDBD"/>
<defs>
<linearGradient id="paint0_linear_31_85" x1="57.3753" y1="46.3976" x2="528.896" y2="46.3976" gradientUnits="userSpaceOnUse">
<stop stop-color="#F47420"/>
<stop offset="1" stop-color="#E8E8E8"/>
</linearGradient>
</defs>
</svg>
